<svg id="Layer_1" data-name="Layer 1" xmlns="http://www.w3.org/2000/svg" viewBox="0 0 14 16"><defs><style>.cls-1{fill:red;}</style></defs><path class="cls-1" d="M11,1.5v1h3.5a.5.5,0,0,1,0,1H14l-.85,10.66a2,2,0,0,1-2,1.84H4.88a2,2,0,0,1-2-1.84L2,3.5H1.5a.5.5,0,0,1,0-1H5v-1A1.5,1.5,0,0,1,6.5,0h3A1.5,1.5,0,0,1,11,1.5Zm-5,0v1h4v-1A.5.5,0,0,0,9.5,1h-3A.5.5,0,0,0,6,1.5ZM4.5,5l.5,8.5a.5.5,0,0,0,1,0v0L5.5,5A.5.5,0,0,0,5,4.49.5.5,0,0,0,4.5,5ZM11,4.5A.51.51,0,0,0,10.5,5l-.5,8.5a.5.5,0,0,0,1,.06L11.5,5A.5.5,0,0,0,11,4.5Zm-3,0a.5.5,0,0,0-.5.5v8.5a.5.5,0,0,0,1,0V5A.5.5,0,0,0,8,4.5Z" transform="translate(-1)"/></svg>